# xmcd
#
# Track frame offsets:
# 150
# 16044
# 30821
# 46415
# 61470
# 83388
# 99199
#
# Disc length: 1546 seconds
#
# Revision: 1
# Processed by: cddbd v1.5.2PL0 Copyright (c) Steve Scherf et al.
# Submitted via: B's Recorder GOLD CDDB Client
#
DISCID=3a060807
DTITLE=Bandit - America
DYEAR=1900
DGENRE=
TTITLE0=Cafe
TTITLE1=Die
TTITLE2=English
TTITLE3=Finish
TTITLE4=Giants
TTITLE5=Hits
TTITLE6=I am sum
EXTD=
EXTT0=
EXTT1=
EXTT2=
EXTT3=
EXTT4=
EXTT5=
EXTT6=
PLAYORDER=
